<svg xmlns="http://www.w3.org/2000/svg" xmlns:xlink="http://www.w3.org/1999/xlink" width="1366" zoomAndPan="magnify" viewBox="0 0 1024.5 576" height="768" preserveAspectRatio="xMidYMid meet" version="1.0"><defs><g/><clipPath id="bae1ac9ec8"><path d="M 363.519531 227.738281 L 608.324219 227.738281 L 608.324219 288 L 363.519531 288 Z M 363.519531 227.738281 " clip-rule="nonzero"/></clipPath><clipPath id="925c07a711"><path d="M 393.648438 227.738281 L 578.0625 227.738281 C 594.703125 227.738281 608.191406 241.230469 608.191406 257.871094 C 608.191406 274.511719 594.703125 288 578.0625 288 L 393.648438 288 C 377.007812 288 363.519531 274.511719 363.519531 257.871094 C 363.519531 241.230469 377.007812 227.738281 393.648438 227.738281 Z M 393.648438 227.738281 " clip-rule="nonzero"/></clipPath></defs><g clip-path="url(#bae1ac9ec8)"><g clip-path="url(#925c07a711)"><path fill="#be9779" d="M 363.519531 227.738281 L 608.089844 227.738281 L 608.089844 288 L 363.519531 288 Z M 363.519531 227.738281 " fill-opacity="1" fill-rule="nonzero"/></g></g><g fill="#000000" fill-opacity="1"><g transform="translate(410.112408, 265.221292)"><g><path d="M 7.75 0.203125 C 6.351562 0.203125 5.140625 -0.0976562 4.109375 -0.703125 C 3.078125 -1.316406 2.285156 -2.1875 1.734375 -3.3125 C 1.179688 -4.445312 0.90625 -5.796875 0.90625 -7.359375 C 0.90625 -8.929688 1.179688 -10.289062 1.734375 -11.4375 C 2.296875 -12.59375 3.09375 -13.476562 4.125 -14.09375 C 5.15625 -14.71875 6.363281 -15.03125 7.75 -15.03125 C 9.125 -15.03125 10.320312 -14.71875 11.34375 -14.09375 C 12.375 -13.476562 13.164062 -12.59375 13.71875 -11.4375 C 14.28125 -10.289062 14.5625 -8.9375 14.5625 -7.375 C 14.5625 -5.832031 14.285156 -4.488281 13.734375 -3.34375 C 13.179688 -2.207031 12.390625 -1.332031 11.359375 -0.71875 C 10.335938 -0.101562 9.132812 0.203125 7.75 0.203125 Z M 7.75 -2.265625 C 8.851562 -2.265625 9.65625 -2.660156 10.15625 -3.453125 C 10.65625 -4.253906 10.90625 -5.546875 10.90625 -7.328125 C 10.90625 -9.160156 10.648438 -10.492188 10.140625 -11.328125 C 9.628906 -12.171875 8.832031 -12.59375 7.75 -12.59375 C 6.644531 -12.59375 5.835938 -12.171875 5.328125 -11.328125 C 4.816406 -10.492188 4.5625 -9.160156 4.5625 -7.328125 C 4.5625 -5.546875 4.8125 -4.253906 5.3125 -3.453125 C 5.820312 -2.660156 6.632812 -2.265625 7.75 -2.265625 Z M 7.75 -2.265625 "/></g></g></g><g fill="#000000" fill-opacity="1"><g transform="translate(425.578759, 265.221292)"><g><path d="M 13.171875 -5.5 C 13.171875 -3.46875 12.65625 -2.007812 11.625 -1.125 C 10.601562 -0.238281 9.125 0.203125 7.1875 0.203125 C 5.070312 0.203125 3.546875 -0.296875 2.609375 -1.296875 C 1.679688 -2.296875 1.21875 -3.816406 1.21875 -5.859375 L 1.21875 -14.421875 C 1.21875 -14.546875 1.25 -14.644531 1.3125 -14.71875 C 1.375 -14.789062 1.445312 -14.828125 1.53125 -14.828125 L 4.421875 -14.828125 C 4.617188 -14.828125 4.71875 -14.707031 4.71875 -14.46875 L 4.71875 -5.421875 C 4.71875 -4.335938 4.945312 -3.546875 5.40625 -3.046875 C 5.863281 -2.546875 6.546875 -2.296875 7.453125 -2.296875 C 9.347656 -2.296875 10.296875 -3.351562 10.296875 -5.46875 L 10.296875 -14.453125 C 10.296875 -14.703125 10.394531 -14.828125 10.59375 -14.828125 L 12.875 -14.828125 C 13.070312 -14.828125 13.171875 -14.707031 13.171875 -14.46875 Z M 13.171875 -5.5 "/></g></g></g><g fill="#000000" fill-opacity="1"><g transform="translate(439.986041, 265.221292)"><g><path d="M 13.421875 -0.546875 C 13.453125 -0.460938 13.46875 -0.398438 13.46875 -0.359375 C 13.46875 -0.253906 13.429688 -0.164062 13.359375 -0.09375 C 13.296875 -0.03125 13.21875 0 13.125 0 L 10.1875 0 C 9.96875 0 9.820312 -0.117188 9.75 -0.359375 L 7.59375 -5.953125 C 7.550781 -6.054688 7.488281 -6.128906 7.40625 -6.171875 C 7.332031 -6.210938 7.207031 -6.234375 7.03125 -6.234375 L 5.140625 -6.234375 C 5.054688 -6.234375 4.992188 -6.207031 4.953125 -6.15625 C 4.910156 -6.113281 4.890625 -6.066406 4.890625 -6.015625 L 4.890625 -0.484375 C 4.890625 -0.304688 4.847656 -0.179688 4.765625 -0.109375 C 4.679688 -0.0351562 4.546875 0 4.359375 0 L 1.8125 0 C 1.65625 0 1.546875 -0.03125 1.484375 -0.09375 C 1.429688 -0.164062 1.40625 -0.269531 1.40625 -0.40625 L 1.40625 -14.453125 C 1.40625 -14.703125 1.507812 -14.828125 1.71875 -14.828125 L 7.953125 -14.828125 C 9.753906 -14.828125 11.144531 -14.472656 12.125 -13.765625 C 13.113281 -13.054688 13.609375 -12.050781 13.609375 -10.75 C 13.609375 -9.78125 13.347656 -8.953125 12.828125 -8.265625 C 12.304688 -7.578125 11.65625 -7.09375 10.875 -6.8125 C 10.769531 -6.769531 10.742188 -6.671875 10.796875 -6.515625 Z M 7.640625 -8.59375 C 8.410156 -8.59375 8.992188 -8.753906 9.390625 -9.078125 C 9.796875 -9.410156 10 -9.890625 10 -10.515625 C 10 -11.148438 9.789062 -11.632812 9.375 -11.96875 C 8.96875 -12.3125 8.421875 -12.484375 7.734375 -12.484375 L 5.28125 -12.484375 C 5.132812 -12.484375 5.03125 -12.457031 4.96875 -12.40625 C 4.914062 -12.363281 4.890625 -12.285156 4.890625 -12.171875 L 4.890625 -8.9375 C 4.890625 -8.8125 4.910156 -8.722656 4.953125 -8.671875 C 4.992188 -8.617188 5.066406 -8.59375 5.171875 -8.59375 Z M 7.640625 -8.59375 "/></g></g></g><g fill="#000000" fill-opacity="1"><g transform="translate(454.413307, 265.221292)"><g/></g></g><g fill="#000000" fill-opacity="1"><g transform="translate(458.529672, 265.221292)"><g><path d="M 9.90625 -11.328125 C 9.5625 -11.710938 9.164062 -12.015625 8.71875 -12.234375 C 8.269531 -12.453125 7.6875 -12.5625 6.96875 -12.5625 C 6.15625 -12.5625 5.535156 -12.414062 5.109375 -12.125 C 4.679688 -11.832031 4.46875 -11.445312 4.46875 -10.96875 C 4.46875 -10.28125 5.007812 -9.773438 6.09375 -9.453125 L 9.25 -8.546875 C 10.4375 -8.210938 11.316406 -7.6875 11.890625 -6.96875 C 12.472656 -6.25 12.765625 -5.382812 12.765625 -4.375 C 12.765625 -3.445312 12.523438 -2.640625 12.046875 -1.953125 C 11.566406 -1.265625 10.878906 -0.734375 9.984375 -0.359375 C 9.085938 0.015625 8.03125 0.203125 6.8125 0.203125 C 5.457031 0.203125 4.234375 -0.0234375 3.140625 -0.484375 C 2.046875 -0.941406 1.242188 -1.570312 0.734375 -2.375 C 0.679688 -2.46875 0.65625 -2.554688 0.65625 -2.640625 C 0.65625 -2.742188 0.722656 -2.859375 0.859375 -2.984375 L 2.390625 -4.03125 C 2.523438 -4.113281 2.648438 -4.15625 2.765625 -4.15625 C 2.878906 -4.15625 2.976562 -4.101562 3.0625 -4 C 3.550781 -3.351562 4.046875 -2.894531 4.546875 -2.625 C 5.054688 -2.363281 5.734375 -2.234375 6.578125 -2.234375 C 7.460938 -2.234375 8.160156 -2.375 8.671875 -2.65625 C 9.179688 -2.9375 9.4375 -3.359375 9.4375 -3.921875 C 9.4375 -4.273438 9.304688 -4.578125 9.046875 -4.828125 C 8.796875 -5.085938 8.375 -5.3125 7.78125 -5.5 L 4.75 -6.359375 C 3.601562 -6.671875 2.71875 -7.203125 2.09375 -7.953125 C 1.46875 -8.710938 1.15625 -9.570312 1.15625 -10.53125 C 1.15625 -11.382812 1.390625 -12.148438 1.859375 -12.828125 C 2.335938 -13.503906 3.007812 -14.039062 3.875 -14.4375 C 4.738281 -14.832031 5.738281 -15.03125 6.875 -15.03125 C 7.988281 -15.03125 9.007812 -14.835938 9.9375 -14.453125 C 10.875 -14.078125 11.59375 -13.570312 12.09375 -12.9375 C 12.164062 -12.820312 12.203125 -12.726562 12.203125 -12.65625 C 12.203125 -12.570312 12.164062 -12.5 12.09375 -12.4375 L 10.40625 -11.1875 C 10.332031 -11.132812 10.273438 -11.109375 10.234375 -11.109375 C 10.160156 -11.109375 10.050781 -11.179688 9.90625 -11.328125 Z M 9.90625 -11.328125 "/></g></g></g><g fill="#000000" fill-opacity="1"><g transform="translate(472.057733, 265.221292)"><g><path d="M 1.40625 -14.453125 C 1.40625 -14.703125 1.507812 -14.828125 1.71875 -14.828125 L 11.796875 -14.828125 C 11.992188 -14.828125 12.09375 -14.710938 12.09375 -14.484375 L 12.078125 -12.6875 C 12.078125 -12.40625 11.9375 -12.265625 11.65625 -12.265625 L 5.28125 -12.265625 C 5.019531 -12.265625 4.890625 -12.160156 4.890625 -11.953125 L 4.890625 -9.046875 C 4.890625 -8.828125 4.992188 -8.71875 5.203125 -8.71875 L 9.4375 -8.71875 C 9.65625 -8.71875 9.765625 -8.609375 9.765625 -8.390625 L 9.765625 -6.46875 C 9.765625 -6.28125 9.660156 -6.1875 9.453125 -6.1875 L 5.171875 -6.1875 C 4.984375 -6.1875 4.890625 -6.109375 4.890625 -5.953125 L 4.890625 -2.8125 C 4.890625 -2.71875 4.90625 -2.648438 4.9375 -2.609375 C 4.976562 -2.578125 5.035156 -2.5625 5.109375 -2.5625 L 11.953125 -2.5625 C 12.191406 -2.5625 12.3125 -2.460938 12.3125 -2.265625 L 12.3125 -0.359375 C 12.3125 -0.117188 12.175781 0 11.90625 0 L 1.84375 0 C 1.675781 0 1.5625 -0.03125 1.5 -0.09375 C 1.4375 -0.164062 1.40625 -0.273438 1.40625 -0.421875 Z M 1.40625 -14.453125 "/></g></g></g><g fill="#000000" fill-opacity="1"><g transform="translate(485.126195, 265.221292)"><g><path d="M 13.421875 -0.546875 C 13.453125 -0.460938 13.46875 -0.398438 13.46875 -0.359375 C 13.46875 -0.253906 13.429688 -0.164062 13.359375 -0.09375 C 13.296875 -0.03125 13.21875 0 13.125 0 L 10.1875 0 C 9.96875 0 9.820312 -0.117188 9.75 -0.359375 L 7.59375 -5.953125 C 7.550781 -6.054688 7.488281 -6.128906 7.40625 -6.171875 C 7.332031 -6.210938 7.207031 -6.234375 7.03125 -6.234375 L 5.140625 -6.234375 C 5.054688 -6.234375 4.992188 -6.207031 4.953125 -6.15625 C 4.910156 -6.113281 4.890625 -6.066406 4.890625 -6.015625 L 4.890625 -0.484375 C 4.890625 -0.304688 4.847656 -0.179688 4.765625 -0.109375 C 4.679688 -0.0351562 4.546875 0 4.359375 0 L 1.8125 0 C 1.65625 0 1.546875 -0.03125 1.484375 -0.09375 C 1.429688 -0.164062 1.40625 -0.269531 1.40625 -0.40625 L 1.40625 -14.453125 C 1.40625 -14.703125 1.507812 -14.828125 1.71875 -14.828125 L 7.953125 -14.828125 C 9.753906 -14.828125 11.144531 -14.472656 12.125 -13.765625 C 13.113281 -13.054688 13.609375 -12.050781 13.609375 -10.75 C 13.609375 -9.78125 13.347656 -8.953125 12.828125 -8.265625 C 12.304688 -7.578125 11.65625 -7.09375 10.875 -6.8125 C 10.769531 -6.769531 10.742188 -6.671875 10.796875 -6.515625 Z M 7.640625 -8.59375 C 8.410156 -8.59375 8.992188 -8.753906 9.390625 -9.078125 C 9.796875 -9.410156 10 -9.890625 10 -10.515625 C 10 -11.148438 9.789062 -11.632812 9.375 -11.96875 C 8.96875 -12.3125 8.421875 -12.484375 7.734375 -12.484375 L 5.28125 -12.484375 C 5.132812 -12.484375 5.03125 -12.457031 4.96875 -12.40625 C 4.914062 -12.363281 4.890625 -12.285156 4.890625 -12.171875 L 4.890625 -8.9375 C 4.890625 -8.8125 4.910156 -8.722656 4.953125 -8.671875 C 4.992188 -8.617188 5.066406 -8.59375 5.171875 -8.59375 Z M 7.640625 -8.59375 "/></g></g></g><g fill="#000000" fill-opacity="1"><g transform="translate(499.553461, 265.221292)"><g><path d="M 13.6875 -14.828125 C 13.820312 -14.828125 13.914062 -14.78125 13.96875 -14.6875 C 14.03125 -14.59375 14.035156 -14.488281 13.984375 -14.375 L 9.1875 -0.421875 C 9.09375 -0.140625 8.890625 0 8.578125 0 L 6.078125 0 C 5.753906 0 5.539062 -0.140625 5.4375 -0.421875 L 0.671875 -14.34375 L 0.640625 -14.515625 C 0.640625 -14.609375 0.671875 -14.679688 0.734375 -14.734375 C 0.804688 -14.796875 0.894531 -14.828125 1 -14.828125 L 3.875 -14.828125 C 4.09375 -14.828125 4.234375 -14.710938 4.296875 -14.484375 L 7.578125 -4.375 C 7.585938 -4.28125 7.617188 -4.234375 7.671875 -4.234375 C 7.722656 -4.234375 7.769531 -4.285156 7.8125 -4.390625 L 10.984375 -14.484375 C 11.054688 -14.710938 11.207031 -14.828125 11.4375 -14.828125 Z M 13.6875 -14.828125 "/></g></g></g><g fill="#000000" fill-opacity="1"><g transform="translate(514.200529, 265.221292)"><g><path d="M 4.578125 -14.828125 C 4.785156 -14.828125 4.890625 -14.707031 4.890625 -14.46875 L 4.890625 -0.484375 C 4.890625 -0.304688 4.847656 -0.179688 4.765625 -0.109375 C 4.691406 -0.0351562 4.554688 0 4.359375 0 L 1.84375 0 C 1.675781 0 1.5625 -0.03125 1.5 -0.09375 C 1.4375 -0.164062 1.40625 -0.273438 1.40625 -0.421875 L 1.40625 -14.453125 C 1.40625 -14.703125 1.507812 -14.828125 1.71875 -14.828125 Z M 4.578125 -14.828125 "/></g></g></g><g fill="#000000" fill-opacity="1"><g transform="translate(520.494969, 265.221292)"><g><path d="M 7.640625 -15.03125 C 8.648438 -15.03125 9.578125 -14.835938 10.421875 -14.453125 C 11.273438 -14.066406 11.976562 -13.539062 12.53125 -12.875 C 13.09375 -12.207031 13.445312 -11.457031 13.59375 -10.625 C 13.613281 -10.53125 13.625 -10.425781 13.625 -10.3125 C 13.625 -10.226562 13.601562 -10.171875 13.5625 -10.140625 C 13.53125 -10.117188 13.472656 -10.101562 13.390625 -10.09375 L 10.6875 -9.90625 C 10.570312 -9.90625 10.492188 -9.925781 10.453125 -9.96875 C 10.421875 -10.007812 10.394531 -10.09375 10.375 -10.21875 C 10.226562 -10.945312 9.929688 -11.523438 9.484375 -11.953125 C 9.046875 -12.378906 8.460938 -12.59375 7.734375 -12.59375 C 5.597656 -12.59375 4.53125 -10.882812 4.53125 -7.46875 C 4.53125 -5.695312 4.796875 -4.40625 5.328125 -3.59375 C 5.867188 -2.78125 6.6875 -2.375 7.78125 -2.375 C 8.570312 -2.375 9.242188 -2.570312 9.796875 -2.96875 C 10.347656 -3.375 10.800781 -4.03125 11.15625 -4.9375 C 11.195312 -5.03125 11.28125 -5.078125 11.40625 -5.078125 C 11.488281 -5.078125 11.550781 -5.070312 11.59375 -5.0625 L 13.546875 -4.640625 C 13.734375 -4.566406 13.804688 -4.398438 13.765625 -4.140625 C 13.628906 -3.566406 13.316406 -2.945312 12.828125 -2.28125 C 12.347656 -1.613281 11.664062 -1.03125 10.78125 -0.53125 C 9.90625 -0.0390625 8.859375 0.203125 7.640625 0.203125 C 6.265625 0.203125 5.066406 -0.117188 4.046875 -0.765625 C 3.023438 -1.410156 2.238281 -2.316406 1.6875 -3.484375 C 1.144531 -4.648438 0.875 -6 0.875 -7.53125 C 0.875 -9.050781 1.144531 -10.375 1.6875 -11.5 C 2.238281 -12.632812 3.023438 -13.503906 4.046875 -14.109375 C 5.066406 -14.722656 6.265625 -15.03125 7.640625 -15.03125 Z M 7.640625 -15.03125 "/></g></g></g><g fill="#000000" fill-opacity="1"><g transform="translate(534.982183, 265.221292)"><g><path d="M 1.40625 -14.453125 C 1.40625 -14.703125 1.507812 -14.828125 1.71875 -14.828125 L 11.796875 -14.828125 C 11.992188 -14.828125 12.09375 -14.710938 12.09375 -14.484375 L 12.078125 -12.6875 C 12.078125 -12.40625 11.9375 -12.265625 11.65625 -12.265625 L 5.28125 -12.265625 C 5.019531 -12.265625 4.890625 -12.160156 4.890625 -11.953125 L 4.890625 -9.046875 C 4.890625 -8.828125 4.992188 -8.71875 5.203125 -8.71875 L 9.4375 -8.71875 C 9.65625 -8.71875 9.765625 -8.609375 9.765625 -8.390625 L 9.765625 -6.46875 C 9.765625 -6.28125 9.660156 -6.1875 9.453125 -6.1875 L 5.171875 -6.1875 C 4.984375 -6.1875 4.890625 -6.109375 4.890625 -5.953125 L 4.890625 -2.8125 C 4.890625 -2.71875 4.90625 -2.648438 4.9375 -2.609375 C 4.976562 -2.578125 5.035156 -2.5625 5.109375 -2.5625 L 11.953125 -2.5625 C 12.191406 -2.5625 12.3125 -2.460938 12.3125 -2.265625 L 12.3125 -0.359375 C 12.3125 -0.117188 12.175781 0 11.90625 0 L 1.84375 0 C 1.675781 0 1.5625 -0.03125 1.5 -0.09375 C 1.4375 -0.164062 1.40625 -0.273438 1.40625 -0.421875 Z M 1.40625 -14.453125 "/></g></g></g><g fill="#000000" fill-opacity="1"><g transform="translate(548.050645, 265.221292)"><g><path d="M 9.90625 -11.328125 C 9.5625 -11.710938 9.164062 -12.015625 8.71875 -12.234375 C 8.269531 -12.453125 7.6875 -12.5625 6.96875 -12.5625 C 6.15625 -12.5625 5.535156 -12.414062 5.109375 -12.125 C 4.679688 -11.832031 4.46875 -11.445312 4.46875 -10.96875 C 4.46875 -10.28125 5.007812 -9.773438 6.09375 -9.453125 L 9.25 -8.546875 C 10.4375 -8.210938 11.316406 -7.6875 11.890625 -6.96875 C 12.472656 -6.25 12.765625 -5.382812 12.765625 -4.375 C 12.765625 -3.445312 12.523438 -2.640625 12.046875 -1.953125 C 11.566406 -1.265625 10.878906 -0.734375 9.984375 -0.359375 C 9.085938 0.015625 8.03125 0.203125 6.8125 0.203125 C 5.457031 0.203125 4.234375 -0.0234375 3.140625 -0.484375 C 2.046875 -0.941406 1.242188 -1.570312 0.734375 -2.375 C 0.679688 -2.46875 0.65625 -2.554688 0.65625 -2.640625 C 0.65625 -2.742188 0.722656 -2.859375 0.859375 -2.984375 L 2.390625 -4.03125 C 2.523438 -4.113281 2.648438 -4.15625 2.765625 -4.15625 C 2.878906 -4.15625 2.976562 -4.101562 3.0625 -4 C 3.550781 -3.351562 4.046875 -2.894531 4.546875 -2.625 C 5.054688 -2.363281 5.734375 -2.234375 6.578125 -2.234375 C 7.460938 -2.234375 8.160156 -2.375 8.671875 -2.65625 C 9.179688 -2.9375 9.4375 -3.359375 9.4375 -3.921875 C 9.4375 -4.273438 9.304688 -4.578125 9.046875 -4.828125 C 8.796875 -5.085938 8.375 -5.3125 7.78125 -5.5 L 4.75 -6.359375 C 3.601562 -6.671875 2.71875 -7.203125 2.09375 -7.953125 C 1.46875 -8.710938 1.15625 -9.570312 1.15625 -10.53125 C 1.15625 -11.382812 1.390625 -12.148438 1.859375 -12.828125 C 2.335938 -13.503906 3.007812 -14.039062 3.875 -14.4375 C 4.738281 -14.832031 5.738281 -15.03125 6.875 -15.03125 C 7.988281 -15.03125 9.007812 -14.835938 9.9375 -14.453125 C 10.875 -14.078125 11.59375 -13.570312 12.09375 -12.9375 C 12.164062 -12.820312 12.203125 -12.726562 12.203125 -12.65625 C 12.203125 -12.570312 12.164062 -12.5 12.09375 -12.4375 L 10.40625 -11.1875 C 10.332031 -11.132812 10.273438 -11.109375 10.234375 -11.109375 C 10.160156 -11.109375 10.050781 -11.179688 9.90625 -11.328125 Z M 9.90625 -11.328125 "/></g></g></g></svg>